<?xml version="1.0" standalone="no"?>
<!DOCTYPE svg PUBLIC "-//W3C//DTD SVG 20010904//EN"
 "http://www.w3.org/TR/2001/REC-SVG-20010904/DTD/svg10.dtd">
<svg version="1.0" xmlns="http://www.w3.org/2000/svg"
 width="260.000000pt" height="260.000000pt" viewBox="0 0 260.000000 260.000000"
 preserveAspectRatio="xMidYMid meet">
<metadata>
Created by potrace 1.11, written by Peter Selinger 2001-2013
</metadata>
<g transform="translate(0.000000,260.000000) scale(0.100000,-0.100000)"
fill="#000000" stroke="none">
<path d="M995 2549 c-38 -10 -119 -26 -179 -34 -130 -20 -136 -22 -136 -46 0
-10 -12 -25 -28 -33 -42 -22 -58 -44 -97 -139 -21 -48 -48 -95 -61 -106 -21
-17 -22 -21 -11 -56 11 -36 10 -38 -27 -72 l-38 -35 27 -75 c14 -41 28 -80 31
-88 4 -10 0 -12 -17 -8 l-23 6 21 -34 c23 -37 93 -249 93 -279 0 -10 4 -21 9
-24 4 -3 11 -19 15 -36 7 -36 67 -160 77 -160 13 0 29 28 50 86 18 52 20 82
19 251 0 106 5 234 11 285 11 82 16 96 41 120 62 58 205 108 309 108 59 0 139
-21 315 -84 74 -27 131 -39 210 -47 196 -19 195 -19 225 -48 15 -15 33 -47 39
-71 15 -54 29 -249 30 -391 0 -103 20 -209 40 -209 33 0 98 155 129 307 35
171 23 289 -39 400 -24 43 -30 65 -30 115 0 149 -101 250 -338 337 -45 17 -95
37 -111 46 -28 14 -33 13 -66 -6 -49 -29 -138 -23 -219 14 -71 33 -164 35
-271 6z"/>
<path d="M940 1639 c-68 -11 -104 -25 -152 -56 -56 -38 -56 -55 0 -30 38 17
77 22 207 28 88 4 168 10 178 14 11 5 17 16 15 29 -3 20 -9 21 -98 22 -52 1
-120 -2 -150 -7z"/>
<path d="M1417 1643 c-11 -11 -8 -41 6 -50 6 -4 89 -10 183 -13 145 -5 176 -9
212 -27 47 -23 54 -17 19 15 -37 35 -107 60 -197 71 -95 12 -213 14 -223 4z"/>
<path d="M875 1515 c-51 -18 -80 -52 -63 -72 10 -13 13 -12 19 5 4 10 23 26
42 35 44 21 46 21 40 -3 -3 -11 2 -31 10 -44 16 -23 15 -24 -15 -30 -60 -12
-21 -15 69 -6 97 10 123 17 123 31 0 6 -8 5 -19 -1 -11 -5 -30 -10 -42 -10
-18 0 -20 3 -11 12 7 7 12 21 12 31 0 15 -3 17 -13 8 -15 -12 -37 3 -37 26 0
19 70 17 98 -3 27 -18 29 -4 4 19 -24 22 -159 23 -217 2z m75 -75 c0 -5 -4
-10 -10 -10 -5 0 -10 5 -10 10 0 6 5 10 10 10 6 0 10 -4 10 -10z"/>
<path d="M1501 1506 c-14 -14 -20 -26 -14 -26 6 0 16 7 23 15 7 8 23 15 36 15
20 0 22 -4 17 -34 -3 -21 -1 -36 7 -41 9 -5 11 -4 6 3 -4 7 -1 12 8 12 9 0 16
-4 16 -10 0 -16 -52 -24 -84 -12 -19 8 -26 8 -19 1 13 -13 78 -28 123 -29 29
0 39 6 53 29 21 36 23 58 4 42 -15 -12 -37 3 -37 26 0 29 106 -15 119 -48 6
-19 8 -19 20 -5 11 13 11 19 0 32 -26 32 -74 47 -164 52 -87 4 -91 3 -114 -22z"/>
<path d="M1155 999 c-44 -17 -85 -35 -92 -41 -19 -16 -18 -299 1 -336 19 -36
70 -83 130 -121 70 -44 142 -44 212 0 60 38 111 85 130 121 19 36 20 320 1
336 -22 19 -178 71 -193 65 -8 -3 -14 -15 -12 -26 2 -15 23 -26 83 -48 43 -15
85 -36 92 -45 8 -11 13 -50 13 -105 0 -72 -3 -91 -21 -113 -34 -43 -63 -35
-137 39 l-65 64 -61 -64 c-68 -72 -97 -81 -134 -42 -19 20 -22 35 -22 113 0
58 5 97 13 108 7 9 49 30 92 45 80 28 104 53 73 72 -17 11 -9 13 -103 -22z"/>
</g>
</svg>
