<?xml version="1.0" standalone="no"?>
<!DOCTYPE svg PUBLIC "-//W3C//DTD SVG 20010904//EN"
 "http://www.w3.org/TR/2001/REC-SVG-20010904/DTD/svg10.dtd">
<svg version="1.0" xmlns="http://www.w3.org/2000/svg"
 width="400.000000pt" height="400.000000pt" viewBox="0 0 400.000000 400.000000"
 preserveAspectRatio="xMidYMid meet">
<metadata>
Created by potrace 1.11, written by Peter Selinger 2001-2013
</metadata>
<g transform="translate(0.000000,400.000000) scale(0.100000,-0.100000)"
fill="#000000" stroke="none">
<path d="M713 3971 c-59 -43 -78 -75 -123 -212 -45 -134 -67 -177 -108 -210
l-26 -20 22 -66 23 -65 -26 -34 c-14 -18 -41 -46 -61 -60 -43 -33 -43 -30 31
-201 l53 -125 -39 5 -39 5 34 -47 c31 -41 196 -441 196 -473 0 -6 21 -62 46
-125 46 -112 117 -233 142 -241 18 -5 60 96 85 206 21 92 21 94 4 270 -27 278
-30 376 -18 542 18 236 14 224 85 281 72 57 236 141 321 164 33 9 110 19 171
22 134 7 213 -7 434 -79 250 -80 295 -88 555 -96 212 -7 234 -10 278 -31 106
-52 151 -214 177 -646 14 -232 19 -277 40 -370 19 -80 46 -155 56 -155 14 0
58 62 85 118 62 135 110 338 130 554 21 221 -25 414 -137 571 -25 34 -34 58
-34 86 0 190 -67 341 -194 433 l-39 28 -1042 0 -1042 0 -40 -29z"/>
<path d="M2187 2692 c-87 -9 -111 -38 -66 -83 21 -21 25 -22 269 -15 280 9
344 2 430 -46 l55 -30 -45 46 c-50 52 -115 88 -205 111 -67 18 -325 28 -438
17z"/>
<path d="M1545 2663 c-284 -27 -442 -88 -526 -202 -35 -47 -30 -52 15 -14 70
59 154 80 399 98 243 18 307 33 307 71 0 8 -9 23 -20 34 -20 20 -63 23 -175
13z"/>
<path d="M2348 2483 c-16 -3 -40 -20 -58 -41 -41 -50 -38 -60 8 -24 23 18 55
32 84 36 l47 7 -14 -28 c-18 -34 -19 -54 -3 -88 7 -17 14 -22 19 -14 9 15 39
4 39 -15 0 -29 -50 -29 -170 -1 -24 6 -24 6 -6 -9 10 -8 44 -18 75 -23 84 -11
344 -10 348 2 2 6 -27 9 -79 7 l-81 -4 26 32 c18 21 27 43 27 67 0 31 -2 34
-15 23 -13 -11 -20 -10 -42 7 -59 43 -37 53 62 28 78 -21 139 -60 132 -86 -6
-24 5 -24 26 -1 24 26 21 36 -18 71 -53 46 -119 61 -259 60 -67 -1 -133 -4
-148 -6z"/>
<path d="M1318 2430 c-101 -12 -165 -37 -209 -81 -46 -46 -48 -61 -13 -84 26
-17 27 -17 22 3 -7 27 31 68 87 93 56 26 67 25 55 -5 -9 -26 3 -91 20 -101 6
-3 7 1 4 9 -8 20 19 21 35 2 8 -10 9 -16 1 -21 -6 -3 -8 -10 -5 -15 6 -10
-139 -25 -154 -16 -6 4 -11 3 -11 -3 0 -5 4 -12 9 -16 12 -7 161 10 282 31 80
15 159 47 145 61 -3 3 -11 1 -18 -5 -14 -11 -113 -42 -135 -42 -10 0 -7 7 7
22 14 15 20 35 20 67 0 40 -2 43 -13 27 -11 -15 -17 -17 -35 -7 -12 6 -26 20
-32 31 -10 18 -7 20 18 20 15 0 34 -6 42 -12 11 -10 11 -9 0 6 -14 19 -13 19
35 13 28 -4 61 -15 75 -25 61 -45 66 -39 14 18 -36 40 -37 40 -108 39 -39 -1
-101 -5 -138 -9z"/>
<path d="M2040 1550 c-25 -25 -26 -56 -2 -69 9 -5 64 -21 122 -36 122 -32 173
-57 190 -94 7 -14 17 -81 23 -148 13 -148 4 -189 -49 -229 -57 -44 -82 -37
-170 42 -177 159 -161 147 -177 123 -8 -11 -56 -65 -107 -120 -104 -112 -125
-120 -188 -73 -46 36 -59 71 -67 194 -8 124 3 186 39 216 13 12 79 43 145 69
135 52 152 68 120 109 -11 14 -27 26 -35 26 -25 0 -278 -111 -301 -132 -12
-11 -25 -33 -28 -49 -4 -16 -1 -126 5 -246 14 -256 19 -272 114 -360 71 -66
146 -113 238 -150 108 -44 190 -25 331 79 76 57 144 132 177 198 l23 45 -12
228 c-12 243 -22 289 -63 307 -31 13 -284 90 -298 90 -5 0 -19 -9 -30 -20z"/>
<path d="M2696 617 c-66 -114 -276 -215 -513 -247 -115 -16 -359 -8 -463 15
-167 37 -336 126 -415 218 l-40 46 -105 -45 c-136 -58 -178 -69 -340 -94 -370
-56 -552 -127 -679 -266 -47 -51 -131 -199 -131 -230 0 -12 300 -14 1980 -14
1577 0 1980 3 1980 13 0 21 -47 114 -89 175 -75 111 -201 205 -337 253 -92 32
-170 47 -385 78 l-200 29 -112 56 c-62 31 -115 56 -119 56 -3 0 -18 -20 -32
-43z"/>
</g>
</svg>
